 <svg version="1.0" xmlns="http://www.w3.org/2000/svg" width="700.000000pt" height="582.000000pt" viewBox="0 0 700.000000 582.000000" preserveAspectRatio="xMidYMid meet">
<metadata>
Created by potrace 1.12, written by Peter Selinger 2001-2015
</metadata>
<g transform="translate(0.000000,582.000000) scale(0.100000,-0.100000)" fill="#000000" stroke="none">
<path d="M3397 5806 c-94 -34 -187 -144 -280 -333 l-60 -122 -71 -11 c-271
-43 -575 -149 -968 -339 -263 -127 -421 -242 -628 -458 -127 -132 -269 -312
-338 -429 -79 -132 -170 -366 -212 -544 -25 -105 -30 -275 -12 -365 6 -27 8
-53 4 -57 -4 -3 -81 24 -171 60 -159 64 -165 68 -173 100 -7 25 -18 37 -43 48
-19 8 -35 18 -35 23 0 4 10 31 21 59 28 68 22 82 -37 82 -52 0 -102 -25 -128
-65 -13 -20 -25 -25 -59 -25 -67 0 -127 -43 -165 -119 -54 -108 -54 -195 -2
-255 37 -41 131 -84 216 -98 55 -9 71 -9 99 5 33 16 36 15 122 -22 48 -21 106
-44 128 -51 22 -7 44 -16 48 -20 4 -4 -12 -68 -37 -143 -54 -164 -65 -227 -43
-260 17 -27 108 -72 227 -115 106 -38 160 -61 160 -68 0 -3 -11 -20 -24 -37
-66 -88 -89 -180 -90 -349 l-1 -118 -30 0 c-37 0 -75 -10 -75 -19 0 -4 25 -6
56 -6 l56 0 17 -55 c10 -30 28 -79 41 -109 20 -44 21 -57 11 -73 -15 -24 -7
-35 13 -19 12 10 20 5 46 -30 48 -67 209 -230 273 -278 l58 -42 -21 -33 c-22
-37 -24 -46 -11 -46 5 0 18 16 30 35 l21 35 82 -41 c121 -61 247 -90 388 -90
104 -1 129 3 261 40 124 34 179 53 287 98 11 5 23 -16 45 -80 4 -10 11 -16 16
-13 5 4 1 28 -10 55 l-18 50 66 36 c68 37 158 102 226 164 21 19 39 32 41 30
5 -4 36 -211 36 -235 0 -12 -4 -13 -21 -3 -14 7 -24 8 -31 1 -7 -7 1 -15 25
-25 33 -14 35 -18 47 -89 7 -40 27 -152 45 -248 18 -96 30 -178 28 -182 -2 -5
-17 -8 -33 -8 -16 0 -32 -4 -35 -10 -4 -6 8 -10 29 -10 23 0 38 -6 45 -17 10
-20 71 -374 71 -415 0 -21 -6 -28 -30 -33 -39 -9 -39 -29 0 -23 35 5 41 -2 50
-52 5 -31 9 -35 38 -38 22 -2 32 1 32 10 0 37 -76 555 -125 853 -24 147 -85
607 -85 643 0 18 108 110 210 178 54 36 188 98 265 121 30 9 55 21 55 25 0 12
-56 -1 -150 -34 -47 -16 -100 -35 -117 -41 -19 -6 -33 -17 -33 -26 -1 -22
-246 -141 -291 -141 -34 0 -72 19 -97 50 -32 39 -75 140 -92 219 -25 111 -27
304 -4 382 21 72 55 149 65 149 17 0 19 -20 5 -42 -41 -63 -56 -207 -36 -338
11 -70 64 -190 107 -241 25 -30 29 -31 87 -27 50 3 87 16 202 71 204 97 361
147 507 160 261 24 473 -33 665 -179 54 -42 108 -59 142 -46 70 28 143 124
187 246 41 117 36 300 -13 422 -29 73 -29 76 -4 92 17 10 22 9 34 -11 29 -45
48 -134 53 -254 11 -236 -35 -387 -156 -516 -84 -90 -134 -90 -331 -2 -80 36
-148 65 -152 65 -21 0 -3 -18 45 -44 28 -16 89 -53 134 -81 46 -29 103 -58
128 -65 30 -8 45 -18 45 -29 0 -9 -18 -158 -40 -331 -51 -407 -118 -805 -185
-1104 -14 -60 -25 -115 -25 -122 0 -10 15 -14 55 -14 l54 0 10 38 c15 55 67
317 96 481 14 80 28 148 32 152 5 4 22 9 38 11 17 2 29 7 27 13 -1 5 -17 8
-34 6 l-31 -3 7 49 c4 26 17 113 30 193 l22 145 29 5 c37 6 38 24 1 28 -27 3
-28 5 -22 45 3 23 8 70 12 105 4 34 10 62 13 62 4 0 27 -21 51 -46 51 -52 147
-124 203 -150 34 -16 37 -21 37 -61 0 -24 5 -43 10 -43 6 0 10 16 10 35 0 19
4 35 8 35 5 0 36 -11 69 -25 33 -13 94 -33 134 -43 73 -19 75 -20 102 -70 16
-29 32 -52 38 -52 13 0 12 6 -11 50 -11 22 -20 41 -20 43 0 2 39 -2 88 -9 229
-35 394 -1 632 129 159 87 313 255 409 445 34 66 101 258 101 286 0 21 39 36
91 36 21 0 39 5 39 10 0 6 -26 10 -59 10 -33 0 -62 3 -64 8 -3 4 -7 61 -8 127
l-4 119 28 16 c40 22 36 45 -4 25 -17 -9 -32 -15 -34 -13 -11 10 -65 122 -61
125 2 3 52 22 110 43 136 51 202 84 222 114 21 33 12 89 -41 246 -23 69 -44
131 -46 137 -3 8 46 33 134 69 136 56 137 56 171 40 31 -15 41 -15 108 -1 40
8 102 30 138 48 l65 32 3 141 3 142 -43 44 c-43 43 -98 68 -151 68 -15 0 -31
9 -41 25 -26 39 -95 69 -140 61 -43 -8 -45 -23 -16 -91 11 -26 18 -50 15 -55
-2 -4 -18 -13 -35 -20 -22 -9 -33 -22 -37 -42 -7 -37 -18 -44 -195 -113 l-147
-58 -43 21 c-24 11 -51 23 -60 26 -15 4 -14 10 7 54 80 167 91 393 26 584 -54
160 -179 375 -326 563 -116 147 -339 350 -505 460 -112 74 -396 219 -526 269
-189 72 -592 198 -703 220 l-116 22 -33 60 c-132 234 -314 395 -446 394 -28
-1 -68 -7 -89 -14z m169 -81 c27 -13 77 -52 111 -85 60 -59 183 -229 183 -253
0 -9 -60 -12 -232 -12 -128 0 -293 -3 -367 -8 l-133 -7 32 57 c50 89 143 214
195 262 82 75 131 86 211 46z m344 -491 c101 -9 243 -41 380 -86 69 -22 127
-42 129 -44 2 -1 -50 -56 -114 -121 -65 -65 -150 -156 -189 -203 -39 -47 -74
-88 -79 -91 -4 -3 -26 -3 -49 0 -42 6 -43 8 -123 134 -44 70 -100 164 -125
209 -25 45 -64 110 -87 144 -28 42 -38 65 -30 68 12 6 175 0 287 -10z m-500 1
c0 -3 -28 -53 -63 -112 -105 -179 -152 -263 -205 -369 -49 -98 -52 -102 -88
-106 -34 -4 -39 -1 -68 40 -36 52 -120 151 -258 301 -54 58 -98 109 -98 114 0
31 390 114 610 130 81 6 170 7 170 2z m220 -88 c30 -50 70 -121 89 -157 18
-36 62 -113 97 -173 35 -59 64 -109 64 -112 0 -3 -51 -5 -114 -5 -99 0 -410
-19 -578 -35 -32 -3 -58 -3 -58 1 0 3 8 18 18 32 10 15 22 35 25 45 9 25 180
305 249 410 l59 87 47 0 47 0 55 -93z m-798 -345 c83 -90 148 -166 145 -169
-3 -2 -25 -9 -49 -14 -24 -5 -143 -39 -266 -76 -122 -36 -225 -63 -229 -60
-14 14 31 344 68 497 29 121 38 125 117 48 35 -35 131 -136 214 -226z m1680
177 c16 -46 51 -149 78 -229 27 -80 54 -153 60 -162 27 -46 12 -47 -122 -3
-150 49 -252 72 -359 81 -41 3 -81 8 -88 10 -10 3 54 74 184 204 113 113 203
196 208 191 5 -5 22 -46 39 -92z m155 45 c110 -39 431 -191 486 -229 16 -11
11 -16 -45 -53 -35 -22 -126 -83 -202 -136 -77 -53 -143 -96 -148 -96 -12 0
-69 117 -139 286 -99 238 -111 274 -94 274 8 0 72 -21 142 -46z m-2231 -126
c-27 -118 -76 -402 -76 -444 0 -9 -84 42 -175 104 -118 82 -288 223 -278 233
23 23 552 271 561 264 2 -2 -12 -72 -32 -157z m-515 -205 c41 -31 85 -67 99
-80 14 -13 50 -40 80 -60 30 -21 57 -41 60 -44 4 -5 46 -30 111 -64 11 -5 19
-12 19 -15 0 -3 -109 -61 -242 -128 -134 -67 -262 -133 -285 -147 l-41 -26 -7
84 c-8 94 1 276 19 367 1 8 6 36 11 63 6 40 13 52 49 77 22 16 44 29 47 30 3
0 39 -26 80 -57z m3322 -61 c9 -48 21 -125 27 -172 6 -47 13 -103 16 -125 3
-22 7 -47 9 -55 12 -40 -12 -38 -94 10 -45 27 -144 76 -219 110 -76 34 -147
66 -159 72 -24 12 -21 33 5 42 9 3 35 17 57 31 22 14 55 33 73 42 17 9 32 20
32 25 0 4 7 8 15 8 8 0 15 5 15 10 0 6 6 10 14 10 8 0 22 7 30 16 9 8 16 12
16 7 0 -4 6 -1 13 7 14 17 42 36 74 49 11 6 24 15 29 22 13 22 31 -18 47 -109z
m117 21 c102 -82 320 -293 320 -310 0 -18 -140 -110 -221 -145 -81 -36 -95
-31 -104 40 -11 77 -52 301 -73 395 -11 48 -17 87 -13 87 4 0 45 -30 91 -67z
m-3664 -49 c-20 -104 -36 -261 -36 -356 0 -96 -2 -108 -17 -108 -23 0 -229
104 -267 134 l-28 23 76 86 c83 93 254 257 269 257 5 0 6 -16 3 -36z m2361 1
c225 -31 258 -38 376 -72 255 -73 579 -224 879 -410 214 -132 229 -143 359
-273 121 -119 141 -144 174 -214 60 -128 79 -279 54 -422 l-11 -63 -111 -55
c-144 -71 -314 -162 -400 -214 -37 -23 -71 -42 -75 -42 -5 0 -19 -11 -32 -25
-30 -32 -41 -31 -61 4 -27 47 -124 53 -231 15 -57 -20 -118 -71 -118 -99 0
-34 22 -48 55 -35 75 28 124 13 159 -48 14 -26 33 -57 42 -69 15 -20 14 -21
-28 -28 -24 -4 -99 -18 -168 -32 -96 -19 -144 -24 -205 -20 -77 5 -169 29
-181 48 -3 5 6 24 20 41 13 18 27 44 31 58 4 18 23 34 61 54 65 34 174 147
243 253 55 83 104 220 119 330 19 135 -22 330 -95 451 -162 269 -348 402 -744
530 -274 89 -375 101 -655 83 -466 -31 -786 -128 -1102 -334 -243 -158 -404
-330 -459 -490 -22 -64 -24 -84 -20 -182 5 -112 29 -202 73 -272 43 -66 126
-163 190 -219 74 -66 214 -161 249 -170 13 -3 31 -25 47 -58 l26 -53 -99 -22
c-138 -31 -274 -43 -404 -36 -149 9 -152 10 -115 42 17 14 40 44 52 67 42 85
73 100 161 75 69 -19 91 29 36 76 -68 56 -107 70 -207 70 -90 0 -95 -1 -116
-27 -27 -34 -33 -34 -65 -4 -55 51 -580 326 -646 338 -16 3 -19 10 -17 38 7
88 61 206 170 370 90 135 193 247 354 381 148 124 226 176 414 278 267 143
334 169 725 281 279 79 323 87 554 100 110 6 207 13 215 14 49 11 432 4 527
-9z m1664 -387 c4 -29 8 -104 8 -166 1 -131 5 -130 -100 -36 -34 30 -88 70
-120 90 -58 35 -72 51 -46 51 17 0 140 62 148 75 3 5 9 9 13 9 14 -3 66 30 66
41 0 9 3 9 12 0 6 -6 15 -35 19 -64z m-4383 0 c7 -7 12 -9 12 -5 0 4 9 -2 20
-13 12 -12 25 -18 30 -15 6 4 10 1 10 -5 0 -6 5 -8 10 -5 6 3 10 1 10 -5 0 -6
5 -8 10 -5 6 3 10 1 10 -5 0 -6 5 -8 10 -5 6 3 10 1 10 -5 0 -6 5 -8 10 -5 6
3 10 1 10 -4 0 -6 3 -10 8 -9 4 1 22 -6 39 -15 18 -10 36 -18 40 -19 23 -3 63
-21 63 -27 0 -4 -24 -27 -52 -50 -29 -24 -103 -92 -165 -152 -61 -60 -116
-109 -121 -109 -26 0 -37 385 -14 443 12 29 30 35 50 15z m4492 -80 c0 -5 -5
-6 -12 -2 -7 4 -8 3 -4 -5 4 -6 11 -9 16 -6 18 11 162 -252 176 -321 6 -31 5
-32 -34 -39 -67 -11 -109 3 -149 49 l-36 42 2 149 c1 82 5 153 8 158 6 9 33
-11 33 -25z m-4611 -276 c6 -84 14 -159 17 -166 7 -18 -87 -30 -162 -20 -56 7
-56 7 -50 37 10 51 76 209 119 285 l41 72 11 -27 c7 -16 17 -97 24 -181z
m2273 -87 c5 -148 11 -241 18 -243 5 -2 7 -15 4 -28 -8 -32 8 -30 33 4 12 17
38 33 64 41 63 18 106 64 151 160 39 84 39 85 58 65 20 -20 20 -20 -2 -74 -12
-30 -37 -76 -55 -102 -18 -26 -26 -45 -18 -42 22 9 79 83 109 142 58 114 160
191 234 177 55 -10 119 -51 149 -96 21 -32 25 -47 20 -81 l-6 -43 21 25 c26
32 19 88 -17 135 -28 38 -28 40 8 24 34 -15 61 -70 85 -169 37 -152 44 -212
49 -440 l5 -225 -53 3 c-46 3 -61 -1 -102 -28 -58 -37 -58 -57 -2 -77 22 -7
46 -21 53 -30 16 -23 15 -88 -2 -102 -11 -9 -18 -5 -35 23 -74 120 -193 150
-280 70 -21 -19 -41 -34 -44 -34 -2 0 -8 11 -11 24 -3 13 -9 31 -12 40 -4 12
5 18 40 27 62 15 119 58 152 114 14 25 24 48 21 51 -2 3 -14 -10 -24 -29 -11
-19 -36 -44 -54 -57 l-34 -23 34 34 c92 93 99 255 16 381 -14 21 -25 42 -25
47 0 12 -63 41 -89 41 -12 0 -21 3 -21 8 0 25 91 126 134 149 21 11 43 13 82
8 44 -5 54 -4 54 9 0 18 -92 32 -147 21 -47 -8 -124 -84 -170 -166 -88 -156
-261 -272 -305 -205 -12 17 -9 102 4 131 7 15 30 36 52 47 23 12 35 23 29 25
-23 8 -87 -31 -107 -65 -11 -21 -21 -61 -24 -103 -4 -56 -8 -69 -20 -67 -12 2
-15 16 -13 70 3 84 -21 137 -74 162 -20 10 -40 14 -43 10 -4 -3 -1 -9 7 -12 8
-3 25 -16 38 -28 22 -22 24 -31 21 -100 -4 -92 -15 -104 -75 -86 -58 17 -114
71 -188 182 -80 120 -147 183 -210 199 l-45 11 0 53 c0 33 7 65 20 87 10 19
22 43 26 53 15 39 112 6 178 -62 l38 -39 -27 -36 c-22 -29 -29 -50 -33 -106
-3 -46 -1 -70 6 -70 16 0 24 34 17 72 -6 34 19 98 40 105 6 2 21 -18 33 -43
36 -73 95 -160 99 -147 5 15 -78 203 -112 255 -14 21 -25 49 -25 62 0 32 40
79 60 71 38 -15 100 -136 100 -196 0 -25 21 -57 97 -148 1 -2 5 -2 8 1 3 3 -3
26 -12 51 -13 36 -21 46 -34 42 -18 -6 -29 19 -29 66 0 36 -44 119 -91 173
-23 26 -39 53 -36 61 3 7 23 17 44 20 21 4 43 8 48 10 6 2 39 3 75 2 l65 -2 7
-240z m184 233 c89 -11 97 -13 106 -37 13 -35 4 -158 -16 -205 -9 -21 -30 -52
-46 -69 -20 -21 -28 -37 -24 -49 8 -27 -11 -45 -69 -64 -29 -9 -62 -26 -74
-37 -13 -11 -26 -18 -29 -14 -3 3 -8 114 -11 246 l-6 241 37 0 c20 0 80 -5
132 -12z m-446 -27 c0 -4 -8 -19 -19 -32 -10 -13 -25 -37 -33 -52 l-14 -28
-25 19 c-13 11 -37 26 -53 34 l-29 15 74 26 c81 28 99 31 99 18z m685 -22 c55
-17 109 -34 120 -39 19 -8 18 -9 -4 -9 -37 -1 -104 -45 -145 -95 -33 -40 -39
-44 -56 -33 -29 18 -25 65 10 120 38 60 38 68 1 33 -24 -23 -29 -25 -35 -11
-8 23 -8 65 2 65 4 0 52 -14 107 -31z m-979 -120 c-35 -64 -42 -122 -19 -153
10 -14 27 -26 38 -26 31 0 91 -45 125 -94 37 -55 38 -66 2 -66 -30 0 -122 -55
-122 -72 0 -6 9 -3 19 6 34 31 151 59 151 36 0 -5 -17 -10 -38 -10 -63 0 -141
-54 -175 -120 -26 -50 -28 -62 -24 -135 4 -86 29 -150 84 -215 l28 -34 -28 18
c-15 10 -36 30 -47 45 l-21 26 15 -30 c25 -53 99 -105 148 -105 19 0 20 2 8
11 -12 8 -10 9 10 5 14 -3 35 -6 47 -6 20 0 21 -3 12 -30 -6 -16 -13 -30 -15
-30 -2 0 -18 9 -36 20 -48 29 -123 27 -170 -5 -20 -14 -39 -25 -42 -25 -7 0
-15 48 -26 155 -8 84 -9 81 -6 -55 4 -160 0 -176 -50 -186 -21 -4 -37 0 -57
16 -37 29 -34 60 8 97 19 17 35 36 35 42 0 6 -13 26 -30 44 l-30 35 0 166 c0
108 -4 166 -10 166 -7 0 -10 -57 -9 -167 l1 -168 -31 -3 -31 -3 0 156 c0 231
63 623 105 651 19 13 20 11 17 -44 -3 -56 12 -102 34 -109 8 -3 10 17 7 64 -5
86 13 119 88 157 29 14 54 24 56 22 2 -1 -8 -23 -21 -47z m3098 -156 c16 -101
-3 -308 -28 -300 -6 2 -16 40 -22 84 -12 84 -26 136 -50 190 -25 55 -20 63 40
63 l53 0 7 -37z m-4835 -79 c2 -2 -15 -35 -38 -73 -23 -39 -55 -100 -71 -136
-16 -36 -34 -65 -39 -65 -11 0 -50 123 -58 182 -3 20 -3 52 1 71 l6 34 98 -5
c53 -2 99 -6 101 -8z m5511 -136 c40 -27 47 -44 23 -51 -10 -2 -26 -8 -35 -12
-18 -7 -23 1 -42 63 -5 16 -3 22 7 22 8 0 29 -10 47 -22z m-6336 -32 l-16 -45
-34 16 c-19 9 -34 20 -34 24 0 14 55 48 77 49 21 0 22 -1 7 -44z m2826 -69
c25 -34 64 -75 87 -92 35 -25 42 -36 42 -65 2 -68 44 -81 62 -20 15 51 29 42
29 -18 -1 -96 -59 -172 -133 -172 -23 0 -54 -9 -74 -21 -42 -26 -104 -21 -165
13 -102 58 -135 238 -64 348 24 37 114 91 151 89 13 0 36 -23 65 -62z m780 33
c45 -23 73 -60 89 -115 33 -120 -14 -225 -125 -279 l-58 -29 -49 18 c-30 11
-63 15 -88 12 -30 -4 -45 0 -65 16 -51 40 -79 140 -53 188 14 26 29 15 29 -22
0 -18 6 -32 16 -36 24 -9 47 22 46 60 -1 30 4 39 36 60 44 29 106 89 128 123
20 29 42 30 94 4z m2921 -48 c31 -34 31 -35 3 -9 -55 49 -84 31 -84 -53 0 -69
31 -135 79 -167 l32 -22 -22 -12 c-21 -11 -26 -8 -56 27 -34 40 -73 144 -73
194 0 93 56 112 121 42z m-6651 19 c16 -32 12 -106 -11 -167 -24 -64 -91 -144
-121 -144 -105 0 -93 177 20 298 36 39 94 45 112 13z m6488 -31 c-23 -67 21
-200 89 -271 l35 -37 -34 -11 c-18 -6 -51 -13 -73 -17 -38 -6 -43 -3 -77 34
-39 43 -70 126 -83 220 l-7 52 39 15 c21 9 56 24 78 34 22 10 41 18 43 16 1
-1 -3 -17 -10 -35z m-6364 -4 c33 -13 62 -30 66 -38 12 -22 -16 -153 -45 -213
-40 -80 -61 -92 -142 -78 -36 7 -67 14 -70 17 -3 3 11 24 32 47 60 66 80 121
80 217 0 51 4 81 10 78 6 -3 37 -16 69 -30z m608 -120 c-2 -4 2 -12 9 -17 11
-7 11 -9 -2 -9 -18 0 -29 28 -28 70 0 24 0 24 13 -5 7 -16 11 -34 8 -39z m32
18 c3 -8 2 -12 -4 -9 -6 3 -10 10 -10 16 0 14 7 11 14 -7z m2549 -11 c-7 -3
-13 -9 -13 -14 0 -6 9 -5 22 2 18 10 20 9 14 -6 -6 -18 -3 -33 30 -134 l17
-54 -26 -19 c-23 -17 -25 -22 -13 -33 10 -11 22 -12 47 -5 19 6 58 10 87 10
45 0 58 -4 82 -28 60 -60 78 -208 36 -297 -78 -169 -348 -221 -559 -108 -97
52 -122 95 -121 204 0 63 5 87 28 133 38 78 59 90 151 84 46 -3 84 -11 100
-22 14 -10 31 -16 37 -14 7 3 -5 15 -26 27 -20 13 -35 26 -32 29 3 3 1 11 -4
17 -7 9 -3 29 15 66 14 30 25 63 25 74 1 48 12 67 36 61 28 -7 32 8 7 20 -14
6 -8 9 22 14 39 6 62 1 38 -7z m-2894 -70 c58 -25 144 -60 190 -79 93 -37 121
-57 121 -88 -1 -30 -34 -98 -59 -121 -22 -19 -22 -19 -154 25 -173 58 -337
117 -344 124 -3 3 4 20 15 38 11 18 28 60 37 93 9 33 18 66 21 73 3 10 11 9
35 -4 18 -9 79 -36 138 -61z m5884 32 c4 -25 20 -72 36 -105 27 -54 28 -61 13
-69 -9 -5 -113 -41 -230 -81 -138 -46 -222 -70 -237 -66 -37 9 -69 62 -69 115
-1 45 0 47 44 69 25 12 110 49 190 82 80 33 163 69 185 79 57 28 62 26 68 -24z
m-423 -64 c0 -3 -24 -17 -53 -31 -49 -23 -53 -28 -61 -73 -10 -50 4 -114 43
-202 23 -50 106 -290 115 -330 5 -27 4 -27 -15 9 -50 93 -156 403 -166 487 -7
56 17 113 59 139 26 16 78 17 78 1z m-5131 -17 c65 -54 64 -123 -4 -328 -26
-81 -139 -360 -151 -375 -4 -5 -188 68 -212 85 -35 24 -28 78 27 225 27 72 51
133 54 135 2 3 47 -10 99 -28 l94 -32 32 22 c62 45 100 147 80 219 -8 29 -18
39 -64 59 -30 13 -52 29 -49 34 12 19 63 10 94 -16z m311 -101 c181 -96 411
-235 426 -259 9 -12 20 -51 26 -86 9 -59 8 -70 -22 -168 -18 -58 -53 -154 -78
-213 l-46 -109 -40 6 c-152 24 -499 125 -639 185 l-47 20 39 80 c44 87 110
271 141 392 23 90 25 183 5 219 -8 14 -14 28 -15 32 0 14 145 -44 250 -99z
m4657 80 c-25 -49 -28 -98 -12 -178 23 -108 97 -329 145 -432 22 -48 37 -90
33 -94 -5 -4 -80 -33 -167 -64 -162 -57 -399 -120 -493 -132 l-52 -6 -36 79
c-55 119 -106 281 -112 355 -4 52 -1 75 14 110 19 42 31 51 174 136 202 118
360 202 434 230 82 30 89 30 72 -4z m-2557 -103 c0 -5 -2 -10 -4 -10 -3 0 -8
5 -11 10 -3 6 -1 10 4 10 6 0 11 -4 11 -10z m230 0 c-20 -13 -43 -13 -35 0 3
6 16 10 28 10 18 0 19 -2 7 -10z m764 -51 c35 -27 34 -45 -2 -19 -15 12 -48
22 -75 24 -68 5 -71 16 -5 16 41 0 62 -5 82 -21z m-1666 -14 c3 -3 -14 -5 -37
-5 -62 0 -101 -41 -101 -105 0 -25 5 -56 11 -68 10 -21 9 -21 -10 2 -32 36
-29 110 6 151 14 18 36 35 47 40 19 7 72 -2 84 -15z m3634 -201 c27 -74 47
-147 48 -171 0 -37 -4 -43 -32 -57 -38 -20 -38 -20 -38 -1 0 18 -28 103 -76
232 -19 51 -34 96 -34 101 0 10 58 31 75 28 5 -1 30 -61 57 -132z m-3284 110
c12 -8 22 -24 22 -35 0 -16 -3 -18 -19 -9 -38 20 -104 12 -153 -19 -25 -16
-49 -34 -52 -40 -4 -6 -17 -16 -29 -22 -31 -17 72 101 108 123 37 22 93 23
123 2z m-1080 -15 c28 -5 57 -16 66 -22 13 -10 -3 -12 -77 -11 -52 0 -100 4
-108 8 -8 4 -6 1 4 -7 9 -8 17 -19 17 -26 0 -15 -43 -82 -62 -99 -13 -10 -16
-6 -21 33 -6 38 -3 52 18 84 13 22 30 41 37 44 22 9 75 7 126 -4z m2145 0 c12
-7 43 -33 68 -60 40 -40 43 -46 20 -38 -14 6 -44 22 -65 37 -34 24 -49 27
-117 27 l-78 0 21 23 c17 17 32 22 75 22 30 0 64 -5 76 -11z m1002 2 c19 -8
19 -9 -5 -16 -25 -8 -202 -14 -194 -6 2 2 25 10 51 17 54 14 118 16 148 5z
m40 -47 c13 -20 15 -37 10 -71 -8 -52 -17 -48 -54 21 -21 37 -23 47 -12 60 19
23 36 20 56 -10z m-110 -20 c8 -9 23 -30 31 -47 l16 -32 -33 37 c-24 27 -47
40 -79 46 l-45 10 47 1 c30 1 52 -4 63 -15z m-3069 -3 c-39 -6 -55 -14 -79
-42 l-29 -34 21 43 21 42 58 -1 57 -2 -49 -6z m2914 -1 c-20 -13 -33 -13 -25
0 3 6 14 10 23 10 15 0 15 -2 2 -10z m-3029 -97 c-11 -21 -71 -80 -71 -70 0 6
72 86 78 87 1 0 -2 -8 -7 -17z m3299 -57 c0 -13 -49 34 -62 59 -6 12 4 6 26
-14 20 -19 36 -39 36 -45z m-1227 42 c45 -32 139 -118 129 -118 -5 0 -33 18
-63 41 -30 22 -69 47 -86 54 -23 10 -31 19 -27 29 8 21 10 20 47 -6z m-994
-48 c-59 -54 -109 -79 -166 -85 -44 -5 -45 -4 -16 5 36 11 133 67 173 100 46
36 53 21 9 -20z m100 -86 c-7 -8 -26 -22 -43 -31 -33 -16 -28 -9 18 25 34 26
44 28 25 6z m884 -145 c22 -16 35 -29 30 -29 -18 0 -115 77 -134 107 -33 50
-20 49 23 -1 23 -27 60 -62 81 -77z m439 58 c16 -43 44 -234 36 -243 -2 -1
-43 12 -91 31 -48 19 -91 35 -96 35 -5 0 -21 4 -36 10 -21 8 -24 13 -16 29 6
10 31 29 56 41 57 28 89 71 82 110 -6 29 4 40 33 37 8 -1 22 -24 32 -50z
m1798 8 c0 -5 -5 -3 -10 5 -5 8 -10 20 -10 25 0 6 5 3 10 -5 5 -8 10 -19 10
-25z m-921 -67 c38 -102 32 -124 -63 -243 -67 -83 -91 -152 -82 -230 4 -40 2
-56 -9 -65 -30 -25 -215 -25 -255 0 -12 7 -12 12 4 28 12 15 14 22 6 27 -7 5
-21 -4 -35 -20 l-22 -28 -64 30 c-35 16 -87 48 -116 71 -50 40 -51 42 -42 79
5 21 9 75 9 120 l0 82 43 11 c153 40 302 88 432 139 83 33 155 60 160 60 6 1
21 -27 34 -61z m-3365 -73 c151 -66 328 -119 458 -138 l93 -13 0 -98 c0 -92
-2 -100 -24 -117 -30 -24 -43 -24 -59 2 -7 12 -16 18 -19 15 -3 -3 0 -12 7
-21 7 -8 10 -21 7 -28 -5 -13 -151 -67 -181 -67 -9 0 -25 18 -36 40 -11 22
-25 40 -30 40 -13 0 -12 -10 5 -40 8 -14 14 -30 15 -36 0 -16 -141 -27 -200
-17 l-45 8 -5 90 c-7 102 -19 131 -100 233 -63 80 -77 123 -55 175 9 23 21 37
28 33 7 -3 70 -30 141 -61z m825 59 c24 -5 31 -12 31 -30 0 -16 13 -32 44 -53
45 -31 63 -64 42 -79 -6 -5 -33 -17 -61 -27 -27 -10 -71 -29 -97 -41 -26 -13
-50 -24 -54 -24 -4 0 -4 33 -1 74 6 73 41 186 56 186 5 0 23 -3 40 -6z m932
-21 c13 -16 12 -17 -3 -4 -17 13 -22 21 -14 21 2 0 10 -8 17 -17z m509 -44 c0
-5 -4 -9 -10 -9 -5 0 -10 7 -10 16 0 8 5 12 10 9 6 -3 10 -10 10 -16z m-3108
-35 c-1 -5 -15 -45 -30 -90 l-28 -81 -24 19 c-20 16 -22 24 -17 67 3 27 13 65
21 85 15 36 15 36 48 23 18 -8 32 -18 30 -23z m2428 -93 l0 -88 -67 -6 c-38
-4 -105 -17 -151 -31 l-82 -24 -16 57 c-9 31 -17 60 -18 65 -1 7 75 35 97 36
4 0 7 -9 7 -19 0 -56 102 -20 169 59 23 28 47 48 52 45 5 -4 9 -46 9 -94z m49
61 c22 -43 80 -98 118 -113 31 -12 63 5 63 32 0 16 4 19 18 14 9 -4 44 -10 77
-14 l60 -6 -4 -45 c-1 -25 -4 -46 -6 -48 -2 -2 -20 1 -41 7 -22 5 -95 15 -163
21 -69 6 -127 13 -130 16 -7 7 -29 157 -24 167 7 13 12 8 32 -31z m-2448 1
c-12 -20 -14 -14 -5 12 4 9 9 14 11 11 3 -2 0 -13 -6 -23z m1845 -11 c-32 -9
-52 -10 -58 -4 -19 19 0 27 54 23 l53 -4 -49 -15z m-1754 7 c17 -9 19 -17 13
-47 -4 -20 -13 -49 -21 -64 -19 -38 -18 -45 12 -52 15 -4 24 -9 21 -12 -9 -9
-88 29 -98 48 -17 32 12 138 38 138 8 0 23 -5 35 -11z m2971 -14 c0 -5 -9 -68
-19 -140 -9 -71 -19 -132 -20 -134 -2 -2 -24 9 -49 23 -25 15 -73 38 -108 50
l-62 24 -3 51 c-3 47 0 55 28 81 16 15 28 34 25 42 -4 10 16 13 102 13 67 0
107 -4 106 -10z m1697 3 c0 -7 3 -30 6 -50 8 -47 -10 -51 -25 -7 -15 44 -14
69 4 69 8 0 15 -6 15 -12z m-4580 -32 c0 -27 -36 -106 -48 -106 -18 0 -21 14
-7 41 8 15 15 41 15 57 0 16 3 31 6 35 12 12 34 -6 34 -27z m3103 -42 c26 -14
47 -28 47 -33 0 -25 -45 -133 -75 -178 -26 -39 -43 -54 -70 -62 -72 -20 -125
17 -125 86 0 44 19 227 26 250 4 14 112 -21 197 -63z m1407 46 c0 -17 7 -45
16 -61 16 -31 14 -46 -5 -35 -15 10 -44 94 -38 111 11 26 27 17 27 -15z m-385
-44 c16 -4 51 -4 80 -1 l52 7 -5 -54 c-5 -72 23 -307 54 -446 14 -63 22 -117
19 -120 -4 -4 -79 -7 -168 -7 l-162 0 -32 175 c-49 269 -46 297 43 406 24 30
47 66 50 80 l6 25 18 -29 c10 -16 30 -32 45 -36z m514 -3 c1 -18 -3 -33 -9
-33 -5 0 -10 24 -9 53 0 38 3 47 9 32 5 -11 9 -35 9 -52z m-4215 32 c3 -13 27
-50 52 -81 83 -102 88 -134 50 -327 -13 -67 -28 -144 -31 -172 -13 -86 -11
-85 -133 -84 -151 1 -218 11 -213 29 48 205 87 491 76 563 l-7 43 66 -4 c70
-5 116 13 116 43 0 24 17 17 24 -10z m1391 1 c48 -23 52 -28 63 -76 20 -87 21
-86 -75 -130 -124 -58 -128 -58 -142 -18 -25 69 -49 209 -37 213 18 7 120 33
130 34 5 1 32 -10 61 -23z m-1695 -16 c0 -42 -48 -130 -71 -130 -4 0 3 24 16
53 14 28 25 59 25 68 0 9 3 19 7 22 12 13 23 7 23 -13z m4260 8 c0 -7 11 -39
24 -71 28 -68 12 -73 -21 -7 -24 46 -30 90 -13 90 6 0 10 -6 10 -12z m397 -14
c3 -9 -3 -25 -16 -37 l-21 -21 0 21 c0 12 -3 28 -6 37 -4 12 0 16 15 16 12 0
24 -7 28 -16z m-3162 -109 c29 -156 29 -155 -33 -188 -107 -58 -176 0 -216
184 -5 22 0 29 36 49 51 28 181 71 189 62 3 -4 14 -52 24 -107z m3210 -217
c-23 -90 -113 -271 -182 -364 -94 -125 -185 -197 -355 -279 -179 -86 -320
-103 -540 -65 -278 48 -511 169 -629 327 l-36 48 11 72 c9 57 17 78 40 102 17
17 34 31 39 31 5 0 34 -22 64 -49 99 -88 328 -188 522 -227 113 -22 282 -16
361 15 30 11 75 21 99 21 59 0 165 27 221 56 83 42 145 89 148 111 2 11 -10
55 -26 96 -29 74 -29 75 -11 108 10 19 28 61 39 94 21 60 21 60 101 98 51 25
90 52 111 77 l33 39 3 -124 c2 -89 -2 -143 -13 -187z m-4992 219 c22 -18 21
-18 -10 -2 -18 8 -33 17 -33 19 0 3 -3 13 -6 23 -5 16 -4 16 10 -2 9 -11 27
-28 39 -38z m-125 15 c30 -25 34 -35 43 -107 14 -112 22 -138 76 -239 77 -145
185 -247 347 -328 83 -42 206 -78 265 -78 20 0 47 -3 60 -7 21 -5 23 -10 17
-49 -7 -57 8 -57 23 0 l11 43 82 7 c94 7 267 50 384 95 108 42 222 119 258
174 21 31 32 33 56 12 9 -8 34 -23 54 -33 l38 -19 -64 -57 c-156 -143 -355
-250 -587 -316 -163 -47 -230 -55 -336 -41 -119 15 -199 44 -315 112 -84 50
-128 86 -221 178 -201 201 -276 381 -249 595 5 44 10 82 10 83 0 9 19 -1 48
-25z m4976 14 c-3 -8 -13 -17 -22 -21 -13 -5 -13 -2 3 15 21 24 26 25 19 6z
m-4674 -26 c0 -5 -10 -10 -22 -9 -22 0 -22 1 -3 9 11 5 21 9 23 9 1 1 2 -3 2
-9z m146 -154 c-19 -104 -70 -324 -79 -332 -5 -5 -137 63 -137 71 0 2 27 70
60 151 55 137 61 148 91 158 23 8 39 23 53 51 19 37 21 38 24 17 2 -14 -4 -65
-12 -116z m-243 63 c67 -23 69 -24 64 -54 -7 -43 -79 -235 -89 -235 -27 0
-113 212 -125 307 l-6 56 44 -25 c24 -14 75 -36 112 -49z m4533 23 c-21 -2
-42 0 -47 5 -4 4 13 6 39 3 l47 -5 -39 -3z m-4443 1 c-7 -2 -19 -2 -25 0 -7 3
-2 5 12 5 14 0 19 -2 13 -5z m4557 -33 c0 -18 -32 -90 -40 -90 -13 0 -33 71
-24 80 8 7 32 15 57 19 4 0 7 -3 7 -9z m-1197 -78 c69 -53 183 -105 268 -123
30 -6 96 -9 150 -7 96 5 98 5 104 -19 3 -13 3 -28 1 -32 -6 -9 -101 -29 -166
-35 -25 -2 -4 -2 45 -1 50 2 99 5 110 7 16 3 22 -9 40 -88 12 -50 25 -95 28
-101 16 -26 -73 -29 -203 -7 -191 33 -355 99 -474 191 -78 60 -77 59 -21 168
27 52 50 95 51 95 2 0 32 -22 67 -48z m-2167 1 c3 -16 7 -34 9 -40 9 -27 -171
-125 -279 -153 l-71 -19 -28 32 -28 32 6 -33 7 -33 -114 3 -113 3 3 30 c7 56
13 60 99 57 142 -5 337 47 446 119 53 35 55 35 63 2z m3318 -195 l15 -36 -61
-36 c-33 -20 -62 -35 -64 -33 -12 12 -45 172 -40 192 3 13 22 41 42 62 l36 38
28 -75 c15 -41 35 -91 44 -112z m-3269 26 l29 -67 -35 -29 c-19 -16 -43 -37
-54 -47 -105 -89 -161 -117 -345 -172 -144 -43 -146 -43 -290 -42 -109 2 -165
7 -225 23 -76 19 -197 71 -240 104 -18 14 -17 14 20 5 97 -23 137 -27 255 -29
69 -1 133 -2 142 -1 23 1 38 32 58 116 11 45 21 69 29 67 7 -1 54 -5 105 -8
169 -11 380 42 466 116 19 16 40 29 46 30 6 0 24 -30 39 -66z"></path>
<path d="M3270 5491 c0 -5 7 -12 16 -15 14 -5 15 -4 4 9 -14 17 -20 19 -20 6z"></path>
<path d="M3418 3969 c-28 -16 -21 -30 7 -17 14 6 25 15 25 20 0 11 -11 10 -32
-3z"></path>
<path d="M3363 3923 c23 -69 33 -93 39 -93 13 0 9 18 -12 66 -20 43 -38 61
-27 27z"></path>
<path d="M4054 3814 c17 -25 26 -52 26 -77 0 -23 4 -36 10 -32 29 18 -9 130
-49 143 -8 3 -2 -12 13 -34z"></path>
<path d="M3400 3790 c0 -11 5 -20 10 -20 6 0 10 9 10 20 0 11 -4 20 -10 20 -5
0 -10 -9 -10 -20z"></path>
<path d="M2970 3740 c0 -5 4 -10 9 -10 5 0 30 -16 55 -35 49 -37 56 -40 56
-26 0 9 -100 81 -113 81 -4 0 -7 -4 -7 -10z"></path>
<path d="M4140 3730 c0 -5 13 -10 29 -10 17 0 33 5 36 10 4 6 -8 10 -29 10
-20 0 -36 -4 -36 -10z"></path>
<path d="M3972 3684 c-28 -25 -52 -51 -52 -57 0 -6 19 7 43 30 23 22 50 43 60
46 17 6 24 27 9 27 -4 0 -31 -21 -60 -46z"></path>
<path d="M3857 3586 c16 -30 29 -48 31 -41 4 18 -35 95 -48 95 -6 0 2 -24 17
-54z"></path>
<path d="M4173 3575 c2 -16 14 -82 25 -145 11 -63 26 -173 33 -245 11 -118 20
-157 34 -144 2 3 0 47 -6 99 l-11 94 34 28 c35 29 28 39 -10 12 -27 -19 -26
-21 -46 102 -19 112 -42 214 -52 223 -3 3 -4 -7 -1 -24z"></path>
<path d="M4240 3550 c0 -5 7 -10 15 -10 8 0 15 5 15 10 0 6 -7 10 -15 10 -8 0
-15 -4 -15 -10z"></path>
<path d="M3180 3547 c0 -7 33 -57 73 -108 52 -68 142 -112 162 -79 4 6 -8 10
-27 10 -44 0 -84 30 -149 111 -59 74 -59 74 -59 66z"></path>
<path d="M4290 3540 c0 -5 7 -10 16 -10 8 0 12 5 9 10 -3 6 -10 10 -16 10 -5
0 -9 -4 -9 -10z"></path>
<path d="M3751 3429 c-53 -47 -103 -68 -136 -55 -8 3 -15 1 -15 -5 0 -15 27
-22 65 -15 23 5 55 25 93 61 72 67 66 80 -7 14z"></path>
<path d="M4130 3470 c0 -5 5 -10 10 -10 6 0 10 5 10 10 0 6 -4 10 -10 10 -5 0
-10 -4 -10 -10z"></path>
<path d="M4130 3380 c0 -5 5 -10 10 -10 6 0 10 5 10 10 0 6 -4 10 -10 10 -5 0
-10 -4 -10 -10z"></path>
<path d="M3590 3980 c0 -5 5 -10 10 -10 6 0 10 5 10 10 0 6 -4 10 -10 10 -5 0
-10 -4 -10 -10z"></path>
<path d="M3650 3970 c0 -5 5 -10 10 -10 6 0 10 5 10 10 0 6 -4 10 -10 10 -5 0
-10 -4 -10 -10z"></path>
<path d="M3704 3945 c21 -16 32 -13 21 4 -3 6 -14 11 -23 11 -15 -1 -15 -2 2
-15z"></path>
<path d="M3725 3873 c-21 -121 -69 -214 -137 -263 -23 -17 -38 -30 -34 -30 16
0 96 62 115 89 39 54 95 241 72 241 -6 0 -13 -17 -16 -37z"></path>
<path d="M3605 3838 c8 -37 12 -44 21 -35 9 9 -6 67 -18 67 -6 0 -7 -13 -3
-32z"></path>
<path d="M3890 3920 c0 -5 5 -10 10 -10 6 0 10 5 10 10 0 6 -4 10 -10 10 -5 0
-10 -4 -10 -10z"></path>
<path d="M2752 3513 c-18 -8 -31 -17 -30 -19 6 -5 88 20 88 28 0 12 -22 9 -58
-9z"></path>
<path d="M2830 3480 c0 -11 5 -20 10 -20 6 0 10 9 10 20 0 11 -4 20 -10 20 -5
0 -10 -9 -10 -20z"></path>
<path d="M2720 3435 c0 -14 5 -25 10 -25 6 0 10 11 10 25 0 14 -4 25 -10 25
-5 0 -10 -11 -10 -25z"></path>
<path d="M2775 3441 c-3 -5 0 -13 7 -17 7 -4 23 -14 36 -22 33 -21 27 1 -7 26
-17 12 -32 18 -36 13z"></path>
<path d="M2760 3150 c0 -11 33 -30 52 -30 7 0 2 9 -12 20 -28 22 -40 25 -40
10z"></path>
<path d="M138 3333 c-39 -43 -59 -89 -62 -148 -8 -133 106 -77 136 67 10 49 9
59 -5 82 -22 33 -37 33 -69 -1z"></path>
<path d="M6700 3100 c0 -5 6 -10 14 -10 8 0 18 5 21 10 3 6 -3 10 -14 10 -12
0 -21 -4 -21 -10z"></path>
<path d="M305 3110 c3 -5 13 -10 21 -10 8 0 14 5 14 10 0 6 -9 10 -21 10 -11
0 -17 -4 -14 -10z"></path>
<path d="M3240 2693 c0 -13 29 -38 35 -31 3 3 -4 13 -15 23 -11 10 -20 13 -20
8z"></path>
<path d="M3304 2635 c22 -17 46 -20 46 -6 0 5 -10 11 -22 15 -37 9 -44 6 -24
-9z"></path>
<path d="M3613 2623 c-13 -2 -23 -9 -23 -15 0 -12 49 -2 65 13 9 9 -1 10 -42
2z"></path>
<path d="M3390 2612 c0 -5 14 -12 31 -16 49 -10 149 -7 149 4 0 6 -29 10 -67
10 -38 0 -78 3 -90 6 -13 4 -23 2 -23 -4z"></path>
<path d="M495 3062 c6 -6 24 -14 40 -18 21 -4 27 -3 20 4 -5 6 -23 14 -40 18
-21 4 -27 3 -20 -4z"></path>
<path d="M576 3031 c15 -14 54 -23 54 -13 0 5 -10 12 -22 16 -33 8 -44 8 -32
-3z"></path>
<path d="M650 3012 c0 -10 79 -36 87 -28 6 5 -16 15 -64 30 -13 4 -23 3 -23
-2z"></path>
<path d="M756 2971 c5 -5 34 -17 64 -26 30 -10 61 -20 68 -23 6 -2 12 0 12 5
0 5 -31 19 -68 31 -74 24 -91 27 -76 13z"></path>
<path d="M6403 3126 c-81 -32 -108 -46 -85 -46 19 0 182 61 188 71 9 15 -16 9
-103 -25z"></path>
<path d="M6265 3070 c-3 -5 1 -10 9 -10 8 0 18 5 21 10 3 6 -1 10 -9 10 -8 0
-18 -4 -21 -10z"></path>
<path d="M6215 3050 c-3 -5 1 -10 9 -10 8 0 18 5 21 10 3 6 -1 10 -9 10 -8 0
-18 -4 -21 -10z"></path>
<path d="M6485 3040 c-3 -5 1 -10 9 -10 8 0 18 5 21 10 3 6 -1 10 -9 10 -8 0
-18 -4 -21 -10z"></path>
<path d="M6165 3030 c-3 -5 1 -10 9 -10 8 0 18 5 21 10 3 6 -1 10 -9 10 -8 0
-18 -4 -21 -10z"></path>
<path d="M6295 2978 c-156 -53 -161 -55 -153 -63 5 -6 309 94 323 106 18 17
-20 7 -170 -43z"></path>
<path d="M1151 2901 c-7 -5 -28 -51 -46 -102 -18 -52 -49 -141 -69 -198 -38
-111 -44 -152 -23 -168 13 -10 293 -114 409 -153 87 -28 116 -21 178 41 70 70
112 163 118 262 l5 77 -35 33 c-20 19 -94 59 -184 98 -203 91 -324 128 -353
110z m62 -71 c31 -36 41 -93 32 -168 -13 -108 -71 -181 -150 -190 l-47 -5 7
34 c8 36 74 244 101 317 9 23 19 42 24 42 4 0 19 -13 33 -30z m206 -92 c58
-28 117 -60 131 -71 l25 -20 -32 6 c-18 4 -79 26 -135 50 -81 34 -104 48 -106
65 -2 12 0 22 3 22 4 0 55 -23 114 -52z m-22 -68 c123 -57 168 -68 193 -45 15
14 17 22 9 37 -17 32 -5 30 30 -4 30 -29 33 -37 29 -78 -11 -107 -118 -260
-182 -260 -28 0 -28 1 -13 18 21 23 21 41 1 70 -17 25 -106 73 -171 92 -24 7
-43 14 -43 16 0 1 3 9 6 17 5 13 24 6 106 -34 68 -33 114 -49 140 -49 62 0 95
49 68 100 -16 29 -85 65 -182 94 -72 22 -88 30 -88 46 0 11 2 20 5 20 2 0 44
-18 92 -40z m11 -89 c46 -16 95 -37 109 -47 24 -15 25 -18 9 -29 -21 -16 -40
-12 -152 37 -79 34 -91 42 -87 59 4 14 11 19 22 15 9 -3 53 -18 99 -35z m-53
-162 c119 -57 88 -62 -67 -13 -111 35 -117 39 -96 51 31 18 58 12 163 -38z"></path>
<path d="M5725 2876 c-123 -42 -318 -130 -362 -163 -67 -51 -68 -141 -2 -272
51 -102 123 -171 178 -171 38 0 147 35 346 109 128 48 155 64 155 91 0 25
-125 399 -143 428 -13 20 -66 13 -172 -22z m159 -79 c24 -71 20 -107 -15 -160
-17 -26 -35 -50 -40 -53 -21 -12 -47 128 -34 185 8 37 54 96 65 84 5 -4 15
-30 24 -56z m-144 -20 c0 -20 -13 -30 -82 -60 -88 -39 -164 -67 -180 -67 -29
0 30 39 136 91 65 33 120 59 122 59 2 0 4 -11 4 -23z m-2 -79 c-2 -17 -21 -27
-102 -54 -149 -50 -200 -93 -174 -148 13 -30 58 -50 90 -42 13 4 67 28 121 54
82 39 99 44 107 32 7 -11 4 -17 -13 -24 -67 -27 -174 -79 -189 -93 -21 -18
-24 -63 -6 -81 9 -9 5 -12 -19 -12 -25 0 -41 11 -81 55 -89 97 -118 222 -65
277 31 32 49 37 31 9 -9 -15 -9 -23 2 -36 22 -27 88 -14 193 38 50 25 96 46
100 46 5 1 7 -9 5 -21z m10 -95 c-4 -22 -136 -89 -191 -99 -48 -8 -69 8 -45
32 17 17 190 82 221 83 12 1 17 -5 15 -16z m92 -138 c7 -9 11 -17 9 -19 -7 -6
-224 -76 -237 -76 -26 0 -10 19 36 41 70 34 156 68 168 69 6 0 17 -7 24 -15z"></path>
<path d="M5430 2260 c0 -5 5 -10 10 -10 6 0 10 5 10 10 0 6 -4 10 -10 10 -5 0
-10 -4 -10 -10z"></path>
<path d="M4360 2341 c0 -5 5 -13 10 -16 6 -3 10 -2 10 4 0 5 -4 13 -10 16 -5
3 -10 2 -10 -4z"></path>
<path d="M5348 2046 c-65 -14 -86 -29 -105 -73 -18 -44 -16 -91 7 -229 27
-155 37 -191 62 -216 18 -18 28 -20 90 -14 38 3 84 12 101 20 58 24 60 30 38
167 -11 68 -25 167 -31 219 -18 145 -30 155 -162 126z m104 -53 c4 -15 -3 -18
-48 -19 -34 -1 -66 -9 -89 -22 -33 -20 -35 -20 -35 -3 0 26 18 38 75 49 76 15
92 14 97 -5z"></path>
<path d="M1553 2039 c-6 -8 -17 -55 -23 -104 -6 -50 -21 -152 -32 -228 -20
-131 -20 -139 -3 -157 22 -24 104 -43 174 -38 49 3 57 6 72 33 23 38 61 248
63 342 2 114 -36 150 -167 160 -55 4 -75 2 -84 -8z m142 -49 c37 -8 65 -31 65
-53 0 -6 -9 -2 -21 9 -16 15 -36 19 -90 19 -64 0 -82 8 -62 28 9 10 61 8 108
-3z"></path>
<path d="M5888 1745 c35 -39 52 -90 52 -152 0 -24 5 -43 10 -43 14 0 12 69 -4
123 -16 55 -52 107 -73 107 -11 0 -6 -10 15 -35z"></path>
<path d="M4780 1370 c6 -11 13 -20 16 -20 2 0 0 9 -6 20 -6 11 -13 20 -16 20
-2 0 0 -9 6 -20z"></path>
<path d="M5645 1320 c-6 -10 34 -30 61 -30 23 0 16 20 -12 30 -32 13 -41 13
-49 0z"></path>
<path d="M4820 1311 c0 -13 139 -117 175 -131 42 -16 19 8 -28 30 -24 11 -66
41 -95 66 -28 25 -52 41 -52 35z"></path>
<path d="M5210 1253 c1 -16 39 -57 46 -50 10 10 -17 57 -33 57 -7 0 -13 -3
-13 -7z"></path>
<path d="M5050 1155 c0 -6 48 -30 78 -39 39 -13 23 8 -21 27 -43 17 -57 21
-57 12z"></path>
<path d="M1945 1220 c-3 -6 1 -7 9 -4 18 7 21 14 7 14 -6 0 -13 -4 -16 -10z"></path>
<path d="M3720 1841 c0 -6 15 -11 33 -11 17 -1 50 -7 72 -15 52 -19 71 -19 79
1 4 9 5 18 3 20 -2 2 -45 7 -95 10 -67 5 -92 4 -92 -5z"></path>
<path d="M3930 1820 c0 -5 7 -10 16 -10 8 0 12 5 9 10 -3 6 -10 10 -16 10 -5
0 -9 -4 -9 -10z"></path>
<path d="M3975 1803 c15 -14 136 -56 142 -49 3 3 -14 14 -38 24 -54 23 -119
38 -104 25z"></path>
<path d="M3504 1598 c4 -123 1 -264 -9 -428 -9 -156 -15 -413 -15 -707 0 -452
0 -463 19 -463 19 0 20 9 23 142 2 79 -1 240 -6 358 -6 136 -6 341 1 560 11
390 7 720 -9 720 -8 0 -9 -57 -4 -182z"></path>
<path d="M4135 1740 c3 -5 10 -10 16 -10 5 0 9 5 9 10 0 6 -7 10 -16 10 -8 0
-12 -4 -9 -10z"></path>
<path d="M2820 1675 c-19 -7 -54 -14 -77 -14 -50 -1 -59 -21 -10 -21 35 0 125
26 142 41 13 13 -14 10 -55 -6z"></path>
<path d="M4040 1653 c0 -6 6 -16 14 -22 26 -22 78 -152 99 -251 12 -55 26
-100 30 -100 20 0 -25 193 -64 275 -26 56 -79 122 -79 98z"></path>
<path d="M3090 1630 c0 -5 5 -10 10 -10 6 0 10 5 10 10 0 6 -4 10 -10 10 -5 0
-10 -4 -10 -10z"></path>
<path d="M3886 1578 c-3 -24 -8 -110 -11 -193 -4 -82 -13 -222 -21 -310 -8
-89 -19 -273 -24 -410 -10 -247 -15 -302 -45 -524 -8 -63 -15 -121 -15 -128 0
-13 30 -19 30 -5 0 4 5 39 11 77 36 253 53 514 79 1240 5 143 12 268 16 278 3
9 2 17 -4 17 -5 0 -12 -19 -16 -42z"></path>
<path d="M3106 1505 c2 -60 13 -195 24 -300 11 -104 25 -230 30 -280 5 -49 10
-104 10 -122 l0 -32 -71 40 c-39 22 -73 38 -75 36 -3 -2 31 -27 74 -55 l79
-50 12 -178 c7 -99 18 -249 26 -334 8 -86 15 -172 15 -193 0 -31 3 -37 21 -37
20 0 21 4 16 53 -3 28 -11 117 -17 197 -25 339 -52 624 -70 745 -11 72 -29
207 -40 300 -10 94 -24 204 -29 245 -10 73 -10 72 -5 -35z"></path>
<path d="M2892 1548 c-12 -16 -42 -114 -42 -140 0 -42 16 -12 36 67 12 47 20
85 19 85 -2 0 -7 -6 -13 -12z"></path>
<path d="M3758 1453 c-21 -14 -35 -30 -32 -34 3 -5 23 3 44 17 22 15 37 30 34
35 -3 5 -6 9 -7 8 -1 -1 -19 -12 -39 -26z"></path>
<path d="M3373 1384 c27 -26 52 -42 59 -38 7 5 -4 21 -33 45 -62 54 -84 48
-26 -7z"></path>
<path d="M2900 1330 c0 -11 59 -44 66 -37 3 2 -11 14 -31 25 -19 12 -35 17
-35 12z"></path>
<path d="M4085 1313 c-29 -7 -43 -23 -19 -23 30 0 64 11 64 21 0 9 -12 10 -45
2z"></path>
<path d="M3938 1037 c-30 -12 -37 -27 -14 -27 24 0 66 19 66 30 0 12 -16 11
-52 -3z"></path>
<path d="M3658 204 c-16 -8 -28 -17 -28 -19 0 -12 30 -3 51 15 28 23 15 25
-23 4z"></path>
<path d="M3320 140 c0 -10 40 -40 52 -40 17 0 6 16 -22 32 -17 9 -30 13 -30 8z"></path>
</g>
</svg>